<?xml version="1.0" standalone="no"?>
<!DOCTYPE svg PUBLIC "-//W3C//DTD SVG 20010904//EN"
 "http://www.w3.org/TR/2001/REC-SVG-20010904/DTD/svg10.dtd">
<svg version="1.0" xmlns="http://www.w3.org/2000/svg"
 width="900.000000pt" height="900.000000pt" viewBox="0 0 900.000000 900.000000"
 preserveAspectRatio="xMidYMid meet">

<g transform="translate(0.000000,900.000000) scale(0.100000,-0.100000)"
fill="#000000" stroke="none">
<path d="M4336 8380 c-465 -36 -871 -156 -1135 -333 -46 -32 -86 -55 -88 -54
-2 2 3 33 12 68 22 95 23 93 -35 86 -105 -13 -235 -97 -288 -185 -23 -41 -27
-58 -27 -128 l0 -80 -96 -12 c-105 -12 -192 -40 -254 -81 -55 -36 -107 -107
-103 -140 3 -26 23 -36 112 -56 l28 -6 -48 -31 c-80 -50 -177 -155 -216 -234
-39 -79 -74 -195 -65 -218 3 -8 24 -20 47 -26 l41 -11 -8 -92 c-12 -138 -9
-499 5 -607 30 -229 97 -501 172 -698 l32 -82 48 6 48 6 23 -43 c37 -75 146
-225 156 -216 2 2 -4 49 -13 103 -33 202 -17 501 42 808 26 135 89 389 103
413 5 11 15 3 36 -28 58 -83 199 -176 323 -212 58 -18 82 -14 82 13 0 10 -10
58 -22 107 -24 99 -32 343 -12 376 9 16 15 11 48 -42 120 -195 327 -331 590
-387 91 -20 281 -30 289 -17 4 6 -8 30 -27 54 -56 75 -196 318 -196 341 0 6
32 -20 72 -57 167 -154 414 -287 651 -350 174 -47 467 -72 518 -45 28 15 20
44 -37 136 -24 39 -44 74 -44 78 0 4 13 -2 29 -13 187 -133 509 -245 909 -315
75 -14 144 -27 153 -31 9 -3 19 -23 23 -43 12 -69 18 -426 8 -542 -5 -63 -8
-116 -6 -118 1 -2 28 4 59 14 39 11 73 14 106 10 l49 -7 40 63 c100 154 190
387 190 489 0 20 3 39 6 42 4 4 23 -12 43 -35 32 -36 39 -40 58 -30 51 27 73
235 53 497 -32 436 -184 839 -430 1140 -73 90 -224 234 -320 306 -284 214
-694 374 -1112 434 -125 18 -473 27 -622 15z"/>
<path d="M3440 6086 c-97 -29 -172 -64 -274 -126 -81 -48 -134 -92 -94 -77 10
3 84 20 165 36 179 37 368 60 525 63 65 2 118 6 118 10 0 15 -92 81 -140 99
-72 27 -201 25 -300 -5z"/>
<path d="M5087 6090 c-45 -17 -137 -83 -137 -98 0 -4 55 -8 123 -10 67 -1 178
-9 247 -18 116 -14 399 -67 438 -81 40 -15 -13 29 -93 77 -103 62 -199 106
-290 131 -92 25 -222 25 -288 -1z"/>
<path d="M3446 5325 c-121 -43 -179 -189 -122 -310 86 -186 368 -156 416 45
20 82 1 150 -59 209 -67 68 -149 87 -235 56z"/>
<path d="M5260 5313 c-69 -36 -107 -84 -122 -154 -15 -72 1 -133 50 -190 129
-151 374 -72 390 127 6 73 -17 132 -72 182 -73 68 -158 79 -246 35z"/>
<path d="M4012 3443 c-36 -78 -38 -196 -4 -260 31 -59 69 -77 151 -71 64 5
184 51 235 90 18 14 16 16 -29 27 -61 15 -105 37 -128 65 -10 11 -15 14 -11 6
4 -8 -12 3 -35 25 -42 40 -105 150 -95 166 3 5 -9 9 -26 9 -28 0 -34 -6 -58
-57z"/>
<path d="M4778 3483 c0 -10 -1 -24 -1 -30 1 -7 -3 -13 -9 -13 -5 0 -7 -4 -4
-9 7 -11 -47 -88 -82 -119 -35 -29 -111 -68 -162 -82 -22 -6 -40 -14 -40 -18
0 -11 99 -63 159 -83 170 -59 268 16 259 196 -4 97 -40 169 -86 173 -25 3 -32
-1 -34 -15z"/>
<path d="M4898 3418 c29 -87 26 -169 -9 -243 -53 -112 -197 -112 -386 -1 l-63
37 -66 -40 c-89 -54 -156 -75 -236 -76 -74 0 -109 18 -141 72 -41 72 -42 205
-1 286 10 18 11 27 4 27 -7 0 -62 -24 -124 -53 -206 -99 -374 -227 -455 -348
-72 -108 -93 -207 -130 -619 -12 -124 -23 -247 -27 -275 l-5 -49 41 62 c80
119 236 231 438 314 l104 43 34 73 c46 100 155 211 233 237 105 34 258 9 314
-53 18 -19 18 -19 48 9 73 68 244 80 348 24 70 -39 143 -122 189 -216 36 -74
38 -76 97 -99 83 -32 231 -107 285 -143 71 -49 160 -137 202 -201 21 -33 38
-57 38 -54 0 3 -9 113 -20 244 -43 505 -57 580 -128 690 -75 115 -238 248
-410 334 -68 33 -191 90 -196 90 -2 0 8 -33 22 -72z"/>
<path d="M4425 2710 c-5 -9 -33 -10 -95 -5 -103 8 -132 -3 -176 -67 -44 -63
-30 -148 32 -197 15 -12 68 -40 118 -64 50 -24 102 -55 114 -68 l24 -25 33 32
c18 17 64 44 102 60 101 42 139 70 164 121 35 73 14 140 -61 191 -29 20 -44
22 -124 20 -50 -2 -98 1 -107 5 -11 5 -20 4 -24 -3z"/>
<path d="M4436 2211 c-4 -6 -33 -11 -64 -11 -35 -1 -89 -12 -140 -29 l-83 -28
-38 -66 c-96 -163 -248 -327 -356 -383 -56 -29 -56 -29 -80 -109 -23 -75 -65
-253 -79 -337 -7 -37 -6 -38 61 -83 l68 -45 780 0 c611 1 784 3 797 13 15 12
14 21 -7 127 -47 236 -97 410 -118 410 -22 0 -134 79 -194 138 -66 63 -151
173 -210 270 -31 51 -46 67 -78 79 -75 28 -139 43 -185 43 -25 0 -51 5 -57 11
-8 8 -13 8 -17 0z"/>
</g>
</svg>
